<mxfile host="65bd71144e">
    <diagram id="9GOSIzSt5ZUlFtkNZdQf" name="Page-1">
        <mxGraphModel dx="1411" dy="699" grid="1" gridSize="10" guides="1" tooltips="1" connect="1" arrows="1" fold="1" page="1" pageScale="1" pageWidth="850" pageHeight="1100" math="0" shadow="0">
            <root>
                <mxCell id="0"/>
                <mxCell id="1" parent="0"/>
                <mxCell id="120" value="" style="shape=mxgraph.mockup.containers.marginRect;rectMarginTop=10;strokeColor=#A4C2F4;strokeWidth=1;dashed=0;rounded=1;arcSize=5;recursiveResize=0;fillColor=none;" parent="1" vertex="1">
                    <mxGeometry x="580" y="360" width="160" height="100" as="geometry"/>
                </mxCell>
                <mxCell id="121" value="Infrastructure" style="shape=rect;strokeColor=none;fillColor=#a4c2f4;strokeWidth=1;dashed=0;rounded=1;arcSize=20;fontColor=#ffffff;fontSize=17;spacing=2;spacingTop=-2;align=left;autosize=1;spacingLeft=4;resizeWidth=0;resizeHeight=0;perimeter=none;" parent="120" vertex="1">
                    <mxGeometry x="5" width="130" height="30" as="geometry"/>
                </mxCell>
                <mxCell id="122" value="&lt;span style=&quot;color: rgb(255, 255, 255);&quot;&gt;DB Facade&lt;/span&gt;" style="rounded=1;whiteSpace=wrap;html=1;fillColor=#a4c2f4ff;strokeColor=none;" parent="120" vertex="1">
                    <mxGeometry x="20" y="40" width="120" height="40" as="geometry"/>
                </mxCell>
                <mxCell id="123" value="" style="shape=mxgraph.mockup.containers.marginRect;rectMarginTop=10;strokeColor=#FFB366;strokeWidth=1;dashed=0;rounded=1;arcSize=5;recursiveResize=0;fillColor=none;" parent="1" vertex="1">
                    <mxGeometry x="440" y="40" width="160" height="200" as="geometry"/>
                </mxCell>
                <mxCell id="124" value="Domain" style="shape=rect;strokeColor=none;fillColor=#FFB366;strokeWidth=1;dashed=0;rounded=1;arcSize=20;fontColor=#ffffff;fontSize=17;spacing=2;spacingTop=-2;align=left;autosize=1;spacingLeft=4;resizeWidth=0;resizeHeight=0;perimeter=none;" parent="123" vertex="1">
                    <mxGeometry x="5" width="80" height="30" as="geometry"/>
                </mxCell>
                <mxCell id="125" value="&lt;font color=&quot;#ffffff&quot;&gt;BankAccount&lt;/font&gt;" style="rounded=1;whiteSpace=wrap;html=1;fillColor=#FFB366;strokeColor=none;" parent="123" vertex="1">
                    <mxGeometry x="20" y="40" width="120" height="40" as="geometry"/>
                </mxCell>
                <mxCell id="126" style="edgeStyle=none;html=1;entryX=0.5;entryY=1;entryDx=0;entryDy=0;strokeColor=#808080;" parent="123" source="127" target="125" edge="1">
                    <mxGeometry relative="1" as="geometry"/>
                </mxCell>
                <mxCell id="127" value="&lt;font color=&quot;#ffffff&quot;&gt;BankAccountService&lt;br&gt;&lt;/font&gt;" style="rounded=1;whiteSpace=wrap;html=1;fillColor=#FFB366;strokeColor=none;" parent="123" vertex="1">
                    <mxGeometry x="20" y="120" width="120" height="40" as="geometry"/>
                </mxCell>
                <mxCell id="128" value="" style="shape=mxgraph.mockup.containers.marginRect;rectMarginTop=10;strokeColor=#93C47D;strokeWidth=1;dashed=0;rounded=1;arcSize=5;recursiveResize=0;fillColor=none;" parent="1" vertex="1">
                    <mxGeometry x="40" y="40" width="160" height="280" as="geometry"/>
                </mxCell>
                <mxCell id="129" value="User Interface" style="shape=rect;strokeColor=none;fillColor=#93c47d;strokeWidth=1;dashed=0;rounded=1;arcSize=20;fontColor=#ffffff;fontSize=17;spacing=2;spacingTop=-2;align=left;autosize=1;spacingLeft=4;resizeWidth=0;resizeHeight=0;perimeter=none;" parent="128" vertex="1">
                    <mxGeometry x="5" width="130" height="30" as="geometry"/>
                </mxCell>
                <mxCell id="130" value="&lt;span style=&quot;color: rgb(255, 255, 255);&quot;&gt;Deposit&lt;/span&gt;&lt;span style=&quot;color: rgb(255, 255, 255);&quot;&gt;Dto&lt;/span&gt;" style="rounded=1;whiteSpace=wrap;html=1;fillColor=#93c47dff;strokeColor=none;" parent="128" vertex="1">
                    <mxGeometry x="20" y="200" width="120" height="40" as="geometry"/>
                </mxCell>
                <mxCell id="131" value="&lt;span style=&quot;color: rgb(255, 255, 255);&quot;&gt;Deposit&lt;/span&gt;&lt;font color=&quot;#ffffff&quot;&gt;Controller&lt;/font&gt;" style="rounded=1;whiteSpace=wrap;html=1;fillColor=#93c47dff;strokeColor=none;" parent="128" vertex="1">
                    <mxGeometry x="20" y="40" width="120" height="40" as="geometry"/>
                </mxCell>
                <mxCell id="132" style="edgeStyle=none;jumpSize=6;html=1;strokeWidth=1;strokeColor=#808080;" parent="128" source="131" target="130" edge="1">
                    <mxGeometry relative="1" as="geometry"/>
                </mxCell>
                <mxCell id="133" value="" style="shape=mxgraph.mockup.containers.marginRect;rectMarginTop=10;strokeColor=#EA9999;strokeWidth=1;dashed=0;rounded=1;arcSize=5;recursiveResize=0;fillColor=none;" parent="1" vertex="1">
                    <mxGeometry x="240" y="40" width="160" height="280" as="geometry"/>
                </mxCell>
                <mxCell id="134" value="Application" style="shape=rect;strokeColor=none;fillColor=#ea9999;strokeWidth=1;dashed=0;rounded=1;arcSize=20;fontColor=#ffffff;fontSize=17;spacing=2;spacingTop=-2;align=left;autosize=1;spacingLeft=4;resizeWidth=0;resizeHeight=0;perimeter=none;" parent="133" vertex="1">
                    <mxGeometry x="5" width="110" height="30" as="geometry"/>
                </mxCell>
                <mxCell id="135" value="&lt;span style=&quot;color: rgb(255, 255, 255);&quot;&gt;Deposit&lt;/span&gt;&lt;font color=&quot;#ffffff&quot;&gt;Request&lt;/font&gt;" style="rounded=1;whiteSpace=wrap;html=1;fillColor=#ea9999ff;strokeColor=none;" parent="133" vertex="1">
                    <mxGeometry x="20" y="40" width="120" height="40" as="geometry"/>
                </mxCell>
                <mxCell id="136" value="&lt;span style=&quot;color: rgb(255, 255, 255);&quot;&gt;Deposit&lt;/span&gt;&lt;font color=&quot;#ffffff&quot;&gt;Response&lt;/font&gt;" style="rounded=1;whiteSpace=wrap;html=1;fillColor=#ea9999ff;strokeColor=none;" parent="133" vertex="1">
                    <mxGeometry x="20" y="200" width="120" height="40" as="geometry"/>
                </mxCell>
                <mxCell id="137" style="edgeStyle=none;html=1;entryX=0.5;entryY=1;entryDx=0;entryDy=0;strokeColor=#808080;" parent="133" source="139" target="135" edge="1">
                    <mxGeometry relative="1" as="geometry"/>
                </mxCell>
                <mxCell id="138" style="edgeStyle=none;html=1;entryX=0.5;entryY=0;entryDx=0;entryDy=0;strokeColor=#808080;" parent="133" source="139" target="136" edge="1">
                    <mxGeometry relative="1" as="geometry"/>
                </mxCell>
                <mxCell id="139" value="&lt;span style=&quot;color: rgb(255, 255, 255);&quot;&gt;Deposit&lt;/span&gt;&lt;font color=&quot;#ffffff&quot;&gt;Interactor&lt;/font&gt;" style="rounded=1;whiteSpace=wrap;html=1;fillColor=#ea9999ff;strokeColor=none;" parent="133" vertex="1">
                    <mxGeometry x="20" y="120" width="120" height="40" as="geometry"/>
                </mxCell>
                <mxCell id="140" style="edgeStyle=none;html=1;strokeColor=#808080;" parent="1" source="139" target="127" edge="1">
                    <mxGeometry relative="1" as="geometry"/>
                </mxCell>
                <mxCell id="141" style="edgeStyle=none;html=1;entryX=0;entryY=0.5;entryDx=0;entryDy=0;strokeColor=#808080;" parent="1" source="130" target="136" edge="1">
                    <mxGeometry relative="1" as="geometry"/>
                </mxCell>
                <mxCell id="142" style="edgeStyle=none;html=1;entryX=0;entryY=0.5;entryDx=0;entryDy=0;strokeColor=#808080;" parent="1" source="139" target="125" edge="1">
                    <mxGeometry relative="1" as="geometry">
                        <Array as="points">
                            <mxPoint x="420" y="180"/>
                            <mxPoint x="420" y="100"/>
                        </Array>
                    </mxGeometry>
                </mxCell>
                <mxCell id="145" style="edgeStyle=none;html=1;strokeColor=#808080;" parent="1" source="131" target="135" edge="1">
                    <mxGeometry relative="1" as="geometry"/>
                </mxCell>
                <mxCell id="146" style="edgeStyle=none;html=1;entryX=0;entryY=0.5;entryDx=0;entryDy=0;strokeColor=#808080;" parent="1" source="131" target="139" edge="1">
                    <mxGeometry relative="1" as="geometry">
                        <Array as="points">
                            <mxPoint x="220" y="100"/>
                            <mxPoint x="220" y="180"/>
                        </Array>
                    </mxGeometry>
                </mxCell>
                <mxCell id="147" value="" style="shape=mxgraph.mockup.containers.marginRect;rectMarginTop=10;strokeColor=#A4C2F4;strokeWidth=1;dashed=0;rounded=1;arcSize=5;recursiveResize=0;fillColor=none;" parent="1" vertex="1">
                    <mxGeometry x="240" y="360" width="300" height="100" as="geometry"/>
                </mxCell>
                <mxCell id="148" value="Infrastructure" style="shape=rect;strokeColor=none;fillColor=#a4c2f4;strokeWidth=1;dashed=0;rounded=1;arcSize=20;fontColor=#ffffff;fontSize=17;spacing=2;spacingTop=-2;align=left;autosize=1;spacingLeft=4;resizeWidth=0;resizeHeight=0;perimeter=none;" parent="147" vertex="1">
                    <mxGeometry x="5" width="130" height="30" as="geometry"/>
                </mxCell>
                <mxCell id="149" value="&lt;span style=&quot;color: rgb(255, 255, 255);&quot;&gt;QueryBuilderBankAccountRepository&lt;/span&gt;" style="rounded=1;whiteSpace=wrap;html=1;fillColor=#a4c2f4ff;strokeColor=none;" parent="147" vertex="1">
                    <mxGeometry x="60" y="40" width="220" height="40" as="geometry"/>
                </mxCell>
                <mxCell id="150" style="edgeStyle=none;html=1;strokeColor=#808080;" parent="1" source="149" target="122" edge="1">
                    <mxGeometry relative="1" as="geometry"/>
                </mxCell>
                <mxCell id="166" style="edgeStyle=none;html=1;entryX=0.5;entryY=0;entryDx=0;entryDy=0;strokeColor=#808080;" parent="1" source="127" target="149" edge="1">
                    <mxGeometry relative="1" as="geometry">
                        <Array as="points">
                            <mxPoint x="520" y="340"/>
                            <mxPoint x="410" y="340"/>
                        </Array>
                    </mxGeometry>
                </mxCell>
                <mxCell id="167" style="edgeStyle=none;html=1;entryX=0.5;entryY=0;entryDx=0;entryDy=0;strokeColor=#808080;" parent="1" source="139" target="149" edge="1">
                    <mxGeometry relative="1" as="geometry">
                        <Array as="points">
                            <mxPoint x="410" y="180"/>
                        </Array>
                    </mxGeometry>
                </mxCell>
                <mxCell id="168" style="edgeStyle=none;html=1;entryX=1;entryY=0.5;entryDx=0;entryDy=0;strokeColor=#FF6666;" parent="1" source="149" target="125" edge="1">
                    <mxGeometry relative="1" as="geometry">
                        <Array as="points">
                            <mxPoint x="560" y="420"/>
                            <mxPoint x="560" y="320"/>
                            <mxPoint x="640" y="320"/>
                            <mxPoint x="640" y="100"/>
                        </Array>
                    </mxGeometry>
                </mxCell>
                <mxCell id="173" style="edgeStyle=none;html=1;entryX=0.5;entryY=0;entryDx=0;entryDy=0;strokeColor=#808080;" edge="1" parent="1" source="169" target="170">
                    <mxGeometry relative="1" as="geometry"/>
                </mxCell>
                <mxCell id="169" value="&lt;font color=&quot;#ffffff&quot;&gt;User Interface&lt;/font&gt;" style="rounded=1;whiteSpace=wrap;html=1;fillColor=#93c47dff;strokeColor=none;glass=0;shadow=0;" vertex="1" parent="1">
                    <mxGeometry x="680" y="40" width="120" height="40" as="geometry"/>
                </mxCell>
                <mxCell id="175" style="edgeStyle=none;html=1;entryX=0.5;entryY=0;entryDx=0;entryDy=0;strokeColor=#808080;" edge="1" parent="1" source="170" target="171">
                    <mxGeometry relative="1" as="geometry"/>
                </mxCell>
                <mxCell id="170" value="&lt;font color=&quot;#ffffff&quot;&gt;Application&lt;br&gt;&lt;/font&gt;" style="rounded=1;whiteSpace=wrap;html=1;fillColor=#ea9999ff;strokeColor=none;glass=0;shadow=0;" vertex="1" parent="1">
                    <mxGeometry x="680" y="100" width="120" height="40" as="geometry"/>
                </mxCell>
                <mxCell id="177" style="edgeStyle=none;html=1;exitX=0.25;exitY=1;exitDx=0;exitDy=0;entryX=0.25;entryY=0;entryDx=0;entryDy=0;strokeColor=#808080;" edge="1" parent="1" source="171" target="172">
                    <mxGeometry relative="1" as="geometry"/>
                </mxCell>
                <mxCell id="171" value="&lt;font color=&quot;#ffffff&quot;&gt;Domain&lt;/font&gt;" style="rounded=1;whiteSpace=wrap;html=1;fillColor=#FFB366;strokeColor=none;glass=0;shadow=0;" vertex="1" parent="1">
                    <mxGeometry x="680" y="160" width="120" height="40" as="geometry"/>
                </mxCell>
                <mxCell id="178" style="edgeStyle=none;html=1;exitX=0.75;exitY=0;exitDx=0;exitDy=0;entryX=0.75;entryY=1;entryDx=0;entryDy=0;strokeColor=#FF6666;" edge="1" parent="1" source="172" target="171">
                    <mxGeometry relative="1" as="geometry"/>
                </mxCell>
                <mxCell id="172" value="&lt;font color=&quot;#ffffff&quot;&gt;Infrastructure&lt;/font&gt;" style="rounded=1;whiteSpace=wrap;html=1;fillColor=#a4c2f4ff;strokeColor=none;" vertex="1" parent="1">
                    <mxGeometry x="680" y="220" width="120" height="40" as="geometry"/>
                </mxCell>
            </root>
        </mxGraphModel>
    </diagram>
</mxfile>
